<svg width="24" height="24" viewBox="0 0 24 24" fill="none" xmlns="http://www.w3.org/2000/svg">
<path d="M12.7197 16.2197C13.0126 15.9268 13.4873 15.9268 13.7802 16.2197C14.0731 16.5126 14.0731 16.9874 13.7802 17.2803L10.2802 20.7803C9.98734 21.0732 9.51257 21.0731 9.21967 20.7803C8.92678 20.4874 8.92678 20.0126 9.21967 19.7197L12.7197 16.2197ZM5.21967 17.7197C5.51256 17.4268 5.98733 17.4268 6.28022 17.7197C6.57307 18.0126 6.57308 18.4874 6.28022 18.7803L4.78022 20.2803C4.48734 20.5732 4.01257 20.5731 3.71967 20.2803C3.42678 19.9874 3.42678 19.5126 3.71967 19.2197L5.21967 17.7197ZM19.0517 11.3633C19.1541 10.8792 19.8458 10.8792 19.9482 11.3633L20.1035 12.1396C20.281 13.0261 20.9738 13.7199 21.8603 13.8975L22.6367 14.0518C23.1062 14.1509 23.1204 14.8035 22.6796 14.9365L21.8603 15.1006C20.9738 15.2781 20.281 15.9718 20.1035 16.8584L19.9482 17.6338L19.9267 17.6953C19.7895 18.0875 19.2655 18.0918 19.0947 17.7598L19.0663 17.6797L18.8994 16.8545C18.7201 15.9701 18.0273 15.2786 17.1425 15.1016L16.3632 14.9463C15.8939 14.8472 15.8793 14.1951 16.3193 14.0615L17.1386 13.8975C18.0254 13.7201 18.7189 13.0264 18.8964 12.1396L19.0517 11.3633ZM10.7197 12.2197C11.0126 11.9268 11.4873 11.9268 11.7802 12.2197C12.0731 12.5126 12.0731 12.9874 11.7802 13.2803L8.28022 16.7803C7.98734 17.0732 7.51257 17.0731 7.21967 16.7803C6.92678 16.4874 6.92678 16.0126 7.21967 15.7197L10.7197 12.2197ZM7.21967 9.71973C7.51256 9.42685 7.98733 9.42684 8.28022 9.71973C8.57307 10.0126 8.57308 10.4874 8.28022 10.7803L4.28022 14.7803C3.98734 15.0732 3.51257 15.0731 3.21967 14.7803C2.92678 14.4874 2.92678 14.0126 3.21967 13.7197L7.21967 9.71973ZM13.7958 1.57031C13.9569 0.809899 15.043 0.809893 15.204 1.57031L15.4472 2.79004C15.726 4.18358 16.8164 5.27389 18.2099 5.55273L19.4287 5.7959C20.1668 5.95137 20.1896 6.97726 19.497 7.18652L18.2099 7.44433C16.8164 7.7231 15.7261 8.81261 15.4472 10.2061L15.204 11.4248L15.1708 11.5205C14.9556 12.1374 14.1318 12.145 13.8632 11.623L13.8183 11.4971L13.5556 10.1992C13.274 8.8095 12.1863 7.72354 10.7958 7.44531L9.57123 7.20117C8.83358 7.04557 8.8102 6.02032 9.5019 5.81055L10.79 5.55273C12.1836 5.27394 13.2729 4.1837 13.5517 2.79004L13.7958 1.57031Z" fill="#242424"/>
</svg>
