<svg width="20" height="20" viewBox="0 0 20 20" fill="none" xmlns="http://www.w3.org/2000/svg">
<path d="M8.69345 2.05762C9.09744 1.9999 9.46366 1.99274 9.82235 2.06445C10.1038 2.12077 10.3521 2.22075 10.588 2.3457C10.4623 2.43654 10.3514 2.54691 10.2608 2.6748C10.0907 2.91512 10.0001 3.19572 10.0001 3.49609C10.0001 3.58147 10.0082 3.66539 10.0225 3.74707C10.0199 3.74558 10.0163 3.74471 10.0138 3.74316C9.80976 3.62081 9.66608 3.56386 9.52743 3.53613C9.3877 3.50826 9.2054 3.50023 8.91513 3.54102C8.52028 3.60878 8.25005 3.79555 8.0538 4.07812C7.84469 4.37928 7.69521 4.82868 7.6495 5.43457C7.64575 5.59433 7.621 6.08211 7.58407 6.75H9.30087C9.71501 6.75 10.0507 7.08589 10.0509 7.5C10.0509 7.91421 9.71508 8.25 9.30087 8.25H7.49813C7.37296 10.3969 7.20668 13.0885 7.14755 13.8574V13.8623L7.13778 13.9824C7.04688 15.0974 6.91172 16.7538 5.37802 17.6484L5.37216 17.6514C4.37488 18.2212 3.19214 18.0349 2.26474 17.5713C1.89435 17.386 1.74362 16.9349 1.9288 16.5645C2.11406 16.1941 2.56522 16.0444 2.93563 16.2295C3.60647 16.5648 4.22245 16.5789 4.62509 16.3506C5.43211 15.8778 5.54537 15.0243 5.65243 13.7402C5.70195 13.0955 5.82607 11.1052 5.93856 9.21777C5.95815 8.8892 5.97783 8.5639 5.99618 8.25H4.80087C4.38679 8.24985 4.05087 7.91412 4.05087 7.5C4.05099 7.08599 4.38686 6.75015 4.80087 6.75H6.08212L6.087 6.65723C6.1065 6.30545 6.12285 6.00709 6.13388 5.78516C6.13938 5.67445 6.14374 5.58391 6.14657 5.51562C6.14799 5.48144 6.14885 5.45355 6.1495 5.43262V5.4082L6.15048 5.40039C6.15048 5.38257 6.15019 5.36446 6.15145 5.34668C6.20748 4.5625 6.40785 3.81826 6.82138 3.22266C7.24871 2.6073 7.87633 2.194 8.67685 2.06055L8.69345 2.05762ZM9.95712 9.15918C10.2674 9.02748 10.5925 8.98575 10.9142 9.05859C11.2265 9.12941 11.4696 9.29362 11.6505 9.46094C11.9273 9.71705 12.1551 10.0834 12.3077 10.3281C12.3344 10.371 12.359 10.4102 12.3809 10.4443C12.3954 10.4669 12.409 10.4907 12.421 10.5146C12.4843 10.6413 12.7627 11.1465 13.1417 11.7988L15.1261 9.8125L15.6554 9.9873C15.7352 10.0173 15.8151 10.0671 15.8751 10.127C15.9451 10.187 15.9857 10.2675 16.0157 10.3477L16.1856 10.874L14.0382 13.0234C14.5325 13.8587 14.9372 14.5858 15.0587 14.8223C15.0801 14.8582 15.1 14.8922 15.1192 14.9248C15.1727 15.0156 15.2208 15.0963 15.2774 15.1826C15.3549 15.3007 15.4209 15.3848 15.4796 15.4404C15.5073 15.4667 15.529 15.4817 15.5431 15.4902C15.5552 15.4975 15.5636 15.5 15.5636 15.5H15.5694C15.5744 15.4997 15.5856 15.4986 15.6026 15.4941C15.6204 15.4833 15.6281 15.4754 15.6349 15.4688C15.6526 15.4513 15.6913 15.4081 15.7618 15.293C15.9781 14.94 16.44 14.8289 16.7931 15.0449C17.1461 15.2613 17.2572 15.7231 17.0411 16.0762C16.8139 16.4469 16.5931 16.6775 16.2374 16.8555C16.2141 16.8671 16.1895 16.8776 16.1651 16.8867C15.8356 17.0102 15.5016 17.0351 15.1817 16.9512C14.8713 16.8696 14.6291 16.7006 14.4483 16.5293C14.1582 16.2544 13.938 15.8788 13.8087 15.6572C13.7898 15.625 13.7729 15.5952 13.7579 15.5703C13.7482 15.5541 13.739 15.5374 13.7306 15.5205C13.6635 15.3864 13.356 14.8276 12.9425 14.1191L10.2804 16.7803C9.98746 17.0731 9.51268 17.0731 9.21981 16.7803C8.9272 16.4874 8.92709 16.0125 9.21981 15.7197L12.045 12.8945C11.5894 12.1209 11.2205 11.459 11.0987 11.2236C11.0668 11.1737 11.0381 11.1274 11.0108 11.084C10.9534 10.9926 10.9027 10.9115 10.8438 10.8252C10.7568 10.6977 10.6882 10.6146 10.6319 10.5625C10.6139 10.5459 10.5994 10.5348 10.5899 10.5283L10.5782 10.5371C10.5698 10.5461 10.5532 10.5656 10.5118 10.6143L10.4903 10.6387C10.4484 10.688 10.3917 10.7541 10.3165 10.8408C10.0452 11.1537 9.57183 11.1882 9.25888 10.917C8.94601 10.6457 8.91245 10.1713 9.18368 9.8584C9.25362 9.77772 9.305 9.7171 9.34677 9.66797L9.36923 9.6416C9.41058 9.59301 9.45575 9.54019 9.50106 9.49316C9.60129 9.38923 9.6984 9.32098 9.78427 9.26074L9.81649 9.23828C9.86029 9.20727 9.90773 9.18016 9.95712 9.15918ZM17.4845 6C17.547 6 17.6082 6.01961 17.6593 6.05566C17.7102 6.09167 17.7488 6.14244 17.7696 6.20117L18.0186 6.9668C18.096 7.19923 18.2271 7.41077 18.4005 7.58398C18.5738 7.75707 18.7851 7.8876 19.0177 7.96484L19.7833 8.21289L19.7989 8.2168C19.8577 8.23758 19.9084 8.27636 19.9444 8.32715C19.9806 8.37818 20.0001 8.43944 20.0001 8.50195C20.0001 8.56445 19.9806 8.62574 19.9444 8.67676C19.9084 8.72753 19.8576 8.76633 19.7989 8.78711L19.0333 9.03516C18.8006 9.11245 18.5885 9.24277 18.4151 9.41602C18.2418 9.5892 18.1116 9.80081 18.0343 10.0332L17.7852 10.7988C17.7644 10.8576 17.7258 10.9083 17.6749 10.9443C17.6238 10.9804 17.5626 11 17.5001 11C17.4376 11 17.3763 10.9804 17.3253 10.9443C17.2744 10.9083 17.2357 10.8575 17.2149 10.7988L16.9659 10.0332C16.889 9.80016 16.7593 9.58791 16.586 9.41406C16.4127 9.24017 16.2009 9.10894 15.9679 9.03125L15.2022 8.7832C15.1433 8.76243 15.0919 8.7238 15.0558 8.67285C15.0196 8.62182 15.0001 8.56056 15.0001 8.49805C15.0001 8.43555 15.0196 8.37426 15.0558 8.32324C15.0919 8.27232 15.1433 8.23366 15.2022 8.21289L15.9679 7.96484C16.1975 7.88555 16.4057 7.75404 16.5763 7.58105C16.7468 7.40796 16.8754 7.19761 16.9513 6.9668L17.1993 6.20117C17.2201 6.14232 17.2596 6.09172 17.3106 6.05566C17.3615 6.01972 17.4221 6.00009 17.4845 6ZM14.4786 0C14.5662 0 14.6522 0.0275726 14.7237 0.078125C14.795 0.128656 14.8489 0.199885 14.878 0.282227L15.2267 1.35352C15.3349 1.67875 15.5173 1.97439 15.7599 2.2168C16.0026 2.45938 16.2993 2.64178 16.6251 2.75L17.6964 3.09863L17.7179 3.10352C17.8005 3.13263 17.8724 3.18735 17.9229 3.25879C17.9733 3.33012 18.0001 3.41562 18.0001 3.50293C18 3.59029 17.9734 3.67573 17.9229 3.74707C17.8724 3.81846 17.8004 3.87224 17.7179 3.90137L16.6466 4.25C16.3208 4.35822 16.0241 4.54062 15.7813 4.7832C15.5388 5.02561 15.3564 5.32125 15.2481 5.64648L14.8995 6.71777C14.8704 6.8001 14.8164 6.87134 14.7452 6.92188C14.6737 6.97243 14.5877 7 14.5001 7C14.4125 6.99997 14.3274 6.9724 14.2559 6.92188C14.2491 6.91701 14.242 6.91247 14.2354 6.90723C14.1742 6.85803 14.1269 6.79217 14.1007 6.71777L13.753 5.64648C13.7343 5.5898 13.7127 5.53427 13.6895 5.47949C13.5795 5.21894 13.4203 4.98142 13.2198 4.78027C13.1817 4.74206 13.1423 4.70512 13.1017 4.66992C12.8833 4.48089 12.6296 4.33582 12.3546 4.24414L11.2823 3.89648C11.1998 3.86735 11.1288 3.81258 11.0782 3.74121C11.0277 3.66981 11.0001 3.58451 11.0001 3.49707C11.0001 3.40964 11.0277 3.3243 11.0782 3.25293C11.1287 3.18168 11.1999 3.12776 11.2823 3.09863L12.3546 2.75C12.6763 2.63895 12.9683 2.45521 13.2071 2.21289C13.4458 1.97061 13.6254 1.67652 13.7315 1.35352L14.0792 0.282227C14.1083 0.199725 14.163 0.128674 14.2345 0.078125C14.3059 0.0276074 14.3911 3.74157e-05 14.4786 0Z" fill="#242424"/>
</svg>
